<svg width="56" height="69" viewBox="0 0 56 69" fill="none" xmlns="http://www.w3.org/2000/svg">
<path d="M54.5104 43.7389C55.8768 42.3845 55.8213 40.2407 54.3865 38.9505C52.9522 37.6602 50.6819 37.7126 49.3155 39.0674L54.5104 43.7389ZM25.4025 62.7771C24.0361 64.1315 24.0916 66.2753 25.5264 67.5656C26.9607 68.8558 29.231 68.8034 30.5974 67.4486L25.4025 62.7771ZM25.4025 67.4486C26.7689 68.8034 29.0392 68.8558 30.4735 67.5656C31.9083 66.2753 31.9638 64.1315 30.5974 62.7771L25.4025 67.4486ZM6.68439 39.0674C5.31819 37.7126 3.04775 37.6602 1.61321 38.9505C0.178665 40.2407 0.123284 42.3845 1.48953 43.7389L6.68439 39.0674ZM24.413 65.1128C24.413 66.9834 26.019 68.4999 28 68.4999C29.9809 68.4999 31.5869 66.9834 31.5869 65.1128H24.413ZM31.5869 3.38709C31.5869 1.51647 29.9809 0 28 0C26.019 0 24.413 1.51647 24.413 3.38709L31.5869 3.38709ZM49.3155 39.0674L25.4025 62.7771L30.5974 67.4486L54.5104 43.7389L49.3155 39.0674ZM30.5974 62.7771L6.68439 39.0674L1.48953 43.7389L25.4025 67.4486L30.5974 62.7771ZM31.5869 65.1128L31.5869 3.38709L24.413 3.38709L24.413 65.1128H31.5869Z" fill="white"/>
</svg>
