<svg width="2237" height="822" viewBox="0 0 2237 822" fill="none" xmlns="http://www.w3.org/2000/svg">
<line x1="2237.01" y1="774.161" x2="1.99994" y2="774.161" stroke="#F1F3F5" stroke-opacity="0.1" stroke-width="1.37936"/>
<line x1="2236.32" y1="773.471" x2="2236.32" y2="117.001" stroke="#F1F3F5" stroke-opacity="0.1" stroke-width="1.37936"/>
<line x1="2104.85" y1="773.471" x2="2104.85" y2="117.001" stroke="#F1F3F5" stroke-opacity="0.1" stroke-width="1.37936"/>
<line x1="1973.38" y1="773.471" x2="1973.38" y2="117.001" stroke="#F1F3F5" stroke-opacity="0.1" stroke-width="1.37936"/>
<line x1="1841.9" y1="773.471" x2="1841.9" y2="117.001" stroke="#F1F3F5" stroke-opacity="0.1" stroke-width="1.37936"/>
<line x1="1710.43" y1="773.471" x2="1710.43" y2="117.001" stroke="#F1F3F5" stroke-opacity="0.1" stroke-width="1.37936"/>
<line x1="1578.96" y1="773.471" x2="1578.96" y2="117.001" stroke="#F1F3F5" stroke-opacity="0.1" stroke-width="1.37936"/>
<line x1="1447.49" y1="773.471" x2="1447.49" y2="117.001" stroke="#F1F3F5" stroke-opacity="0.1" stroke-width="1.37936"/>
<line x1="1316.02" y1="773.471" x2="1316.02" y2="117.001" stroke="#F1F3F5" stroke-opacity="0.1" stroke-width="1.37936"/>
<line x1="1184.55" y1="773.472" x2="1184.55" y2="117.001" stroke="#F1F3F5" stroke-opacity="0.1" stroke-width="1.37936"/>
<line x1="1053.08" y1="773.472" x2="1053.08" y2="117.001" stroke="#F1F3F5" stroke-opacity="0.1" stroke-width="1.37936"/>
<line x1="921.608" y1="773.472" x2="921.608" y2="117.001" stroke="#F1F3F5" stroke-opacity="0.1" stroke-width="1.37936"/>
<line x1="790.138" y1="773.472" x2="790.138" y2="117.001" stroke="#F1F3F5" stroke-opacity="0.1" stroke-width="1.37936"/>
<line x1="658.664" y1="773.472" x2="658.664" y2="117.001" stroke="#F1F3F5" stroke-opacity="0.1" stroke-width="1.37936"/>
<line x1="527.196" y1="773.472" x2="527.196" y2="117.001" stroke="#F1F3F5" stroke-opacity="0.1" stroke-width="1.37936"/>
<line x1="395.722" y1="773.472" x2="395.722" y2="117.001" stroke="#F1F3F5" stroke-opacity="0.1" stroke-width="1.37936"/>
<line x1="395.31" y1="591" x2="395.31" y2="117" stroke="url(#paint0_radial_812_25387)" stroke-width="1.37936"/>
<line x1="921.31" y1="822" x2="921.31" y2="348" stroke="url(#paint1_radial_812_25387)" stroke-width="1.37936"/>
<line x1="1579.31" y1="474" x2="1579.31" y2="-3.01469e-08" stroke="url(#paint2_radial_812_25387)" stroke-width="1.37936"/>
<line x1="1053.31" y1="482" x2="1053.31" y2="8" stroke="url(#paint3_radial_812_25387)" stroke-width="1.37936"/>
<line x1="1973.31" y1="682" x2="1973.31" y2="208" stroke="url(#paint4_radial_812_25387)" stroke-width="1.37936"/>
<line x1="264.252" y1="773.472" x2="264.252" y2="117.001" stroke="#F1F3F5" stroke-opacity="0.1" stroke-width="1.37936"/>
<line x1="132.781" y1="773.472" x2="132.78" y2="117.001" stroke="#F1F3F5" stroke-opacity="0.1" stroke-width="1.37936"/>
<line x1="1.31252" y1="773.472" x2="1.31246" y2="117.001" stroke="#F1F3F5" stroke-opacity="0.1" stroke-width="1.37936"/>
<line x1="2237.01" y1="642.867" x2="1.99994" y2="642.867" stroke="#F1F3F5" stroke-opacity="0.1" stroke-width="1.37936"/>
<line x1="2237.01" y1="511.572" x2="1.99994" y2="511.572" stroke="#F1F3F5" stroke-opacity="0.1" stroke-width="1.37936"/>
<line x1="2237.01" y1="380.279" x2="1.99994" y2="380.279" stroke="#F1F3F5" stroke-opacity="0.1" stroke-width="1.37936"/>
<line x1="2237.01" y1="248.984" x2="1.99994" y2="248.984" stroke="#F1F3F5" stroke-opacity="0.1" stroke-width="1.37936"/>
<line x1="2237.01" y1="117.69" x2="1.99994" y2="117.69" stroke="#F1F3F5" stroke-opacity="0.1" stroke-width="1.37936"/>
<rect x="1446.3" y="642.177" width="129.593" height="129.418" transform="rotate(180 1446.3 642.177)" fill="white" fill-opacity="0.03"/>
<rect x="1840.71" y="379.589" width="129.593" height="129.418" transform="rotate(180 1840.71 379.589)" fill="white" fill-opacity="0.03"/>
<rect x="1051.89" y="379.589" width="129.593" height="129.418" transform="rotate(180 1051.89 379.589)" fill="white" fill-opacity="0.03"/>
<rect x="657.474" y="642.177" width="129.593" height="129.418" transform="rotate(180 657.474 642.177)" fill="white" fill-opacity="0.04"/>
<rect x="526.004" y="510.883" width="129.593" height="129.418" transform="rotate(180 526.004 510.883)" fill="white" fill-opacity="0.04"/>
<defs>
<radialGradient id="paint0_radial_812_25387" cx="0" cy="0" r="1" gradientUnits="userSpaceOnUse" gradientTransform="translate(397 426.034) rotate(-90) scale(53.0702 33497.6)">
<stop offset="0.325" stop-color="#FFF250"/>
<stop offset="1" stop-color="#FFF250" stop-opacity="0"/>
</radialGradient>
<radialGradient id="paint1_radial_812_25387" cx="0" cy="0" r="1" gradientUnits="userSpaceOnUse" gradientTransform="translate(923 657.034) rotate(-90) scale(53.0702 33497.6)">
<stop offset="0.325" stop-color="#FFF250"/>
<stop offset="1" stop-color="#FFF250" stop-opacity="0"/>
</radialGradient>
<radialGradient id="paint2_radial_812_25387" cx="0" cy="0" r="1" gradientUnits="userSpaceOnUse" gradientTransform="translate(1581 309.034) rotate(-90) scale(53.0702 33497.6)">
<stop offset="0.325" stop-color="#FFF250"/>
<stop offset="1" stop-color="#FFF250" stop-opacity="0"/>
</radialGradient>
<radialGradient id="paint3_radial_812_25387" cx="0" cy="0" r="1" gradientUnits="userSpaceOnUse" gradientTransform="translate(1055 317.034) rotate(-90) scale(53.0702 33497.6)">
<stop offset="0.325" stop-color="#FFF250"/>
<stop offset="1" stop-color="#FFF250" stop-opacity="0"/>
</radialGradient>
<radialGradient id="paint4_radial_812_25387" cx="0" cy="0" r="1" gradientUnits="userSpaceOnUse" gradientTransform="translate(1975 517.034) rotate(-90) scale(53.0702 33497.6)">
<stop offset="0.325" stop-color="#FFF250"/>
<stop offset="1" stop-color="#FFF250" stop-opacity="0"/>
</radialGradient>
</defs>
</svg>
